<svg width="11" height="11" viewBox="0 0 11 11" fill="none" xmlns="http://www.w3.org/2000/svg">
<path fill-rule="evenodd" clip-rule="evenodd" d="M1.50914 0C0.596767 0 0 0.647702 0 1.49945C0 2.33264 0.579501 3 1.47374 3H1.49156C2.4216 3 3 2.33277 3 1.49945C2.98247 0.647702 2.4216 0 1.50914 0ZM11 6.51804V11H8.70733V6.81822C8.70733 5.76772 8.37572 5.0508 7.54585 5.0508C6.91235 5.0508 6.53535 5.53395 6.36949 6.00132C6.30901 6.1684 6.29344 6.40096 6.29344 6.63484V11H4C4 11 4.03089 3.91743 4 3.18363H6.29322V4.29157C6.29102 4.29548 6.28851 4.29954 6.28602 4.30358C6.28323 4.30809 6.28046 4.31258 6.27815 4.31682H6.29322V4.29157C6.5979 3.75974 7.14202 3 8.35993 3C9.86883 2.99997 11 4.11716 11 6.51804ZM2 11H0V4H2V11Z" fill="#001832"/>
</svg>
