<svg width="22" height="18" viewBox="0 0 22 18" fill="none" xmlns="http://www.w3.org/2000/svg">
<path d="M20.1093 4.47345C19.9374 12.2406 14.9531 17.6438 7.3906 17.9815C4.29686 18.1504 2.06249 17.1373 0 15.9553C2.23437 16.2931 5.15623 15.4488 6.7031 14.098C4.46874 13.9291 3.09374 12.7471 2.40624 10.8898C3.09374 11.0586 3.78124 10.8898 4.29686 10.8898C2.23437 10.2144 0.859372 9.03243 0.687498 6.33081C1.20312 6.66851 1.89062 6.83737 2.57812 6.83737C1.03125 5.99311 0 2.78494 1.20312 0.758734C3.43749 3.12265 6.18748 5.14886 10.6562 5.48656C9.4531 0.758734 15.9844 -1.77403 18.5625 1.43414C19.7656 1.26529 20.625 0.758734 21.4844 0.421032C21.1406 1.60299 20.4531 2.27839 19.5938 2.9538C20.4531 2.78494 21.3125 2.61609 22 2.27839C21.8281 3.12265 20.9687 3.79805 20.1093 4.47345Z" fill="white"/>
</svg>
